<svg xmlns="http://www.w3.org/2000/svg" width="256" height="256"><path fill-opacity=".016" d="M0 128.004v128.004l128.25-.254 128.25-.254.254-127.75L257.008 0H0v128.004m.485.496c0 70.4.119 99.053.265 63.672.146-35.38.146-92.98 0-128C.604 29.153.485 58.1.485 128.5" fill="#1976D2" fill-rule="evenodd"/><path fill-opacity=".195" d="M99.076 3.06c-4.932 3.572-8.25 9.978-10.58 20.419a30385.17 30385.17 0 00-7.035 31.758c-3.009 13.605-7.294 32.232-9.522 41.393-2.269 9.324-3.673 17.036-3.191 17.518.483.483 5.254-3.432 10.839-8.893 7.702-7.531 12.215-10.994 19.792-15.188 5.398-2.987 10.468-6.431 11.268-7.651.8-1.221 2.306-5.751 3.347-10.068 1.041-4.316 3.925-14.901 6.41-23.522 2.484-8.621 5.066-19.474 5.738-24.119 1.206-8.345 1.188-8.512-1.535-14.077C119.435.058 107.929-3.353 99.076 3.06M63 22.594C51.306 27.66 48.557 39.52 51.781 71c.647 6.325 1.672 18.475 2.277 27 1.25 17.613 2.656 21.321 5.504 14.507.888-2.127 1.972-5.924 2.408-8.437.437-2.514 2.829-13.12 5.318-23.57 8.813-37.011 11.704-51.646 10.607-53.696-1.307-2.441-6.795-5.807-9.395-5.761-1.1.019-3.575.717-5.5 1.551M39.209 64.566C36.279 66.619 33 73.139 33 76.914c0 1.647 2 9.878 4.445 18.29 2.445 8.413 5.531 19.019 6.857 23.569 4.226 14.501 5.484 12.547 4.468-6.941-1.781-34.175-2.687-44.056-4.256-46.451-1.839-2.807-2.349-2.886-5.305-.815M132.5 86.717c-29.982 4.171-55.923 24.129-67.496 51.928-8.736 20.984-8.68 40.702.18 63.676 14.055 36.445 55.462 59.342 91.634 50.671 39.957-9.579 66.729-45.417 64.944-86.934-.777-18.06-6.025-31.503-14.624-37.463-3.48-2.411-4.825-2.778-8.624-2.349-4.424.498-11.514 4.73-11.514 6.871 0 1.976 5.467.466 5.857-1.617.337-1.8 1.816-3.441 3.143-3.487.275-.009.362 5.609.193 12.485-.241 9.799-.605 12.502-1.684 12.502-.758 0-1.518-1.235-1.693-2.75-.299-2.604-.622-2.766-6.078-3.05-4.476-.233-5.895.046-6.357 1.25-.327.852-1.334 1.564-2.238 1.582-.904.017-2.517.692-3.584 1.5-2.77 2.095-7.85 1.813-10.924-.605-1.449-1.139-2.635-1.728-2.635-1.308 0 .42-.602-.06-1.337-1.066-1.111-1.518-2.126-1.711-5.985-1.132-5.641.846-7.678 3.314-7.678 9.302V161h-15v-5.532c0-13.799 9.33-22.468 24.182-22.468 2.65 0 4.818-.45 4.818-1s.9-1 2-1 2-.45 2-1 .675-1 1.5-1c1.133 0 1.5-1.222 1.5-5v-5h-5.441c-5.8 0-7.47-.999-5.04-3.016.932-.773 3.172-1.054 5.932-.742 3.194.36 4.581.116 4.96-.871.704-1.834 3.507-1.748 4.227.129.361.94 1.889 1.5 4.091 1.5 3.012 0 3.337.215 2.271 1.5-.685.825-2.315 1.5-3.622 1.5-1.879 0-2.378.532-2.378 2.535 0 2.122.29 2.38 1.782 1.581 3.458-1.85 7.233-6.434 8.339-10.125 2.292-7.651-3.625-16.726-13.859-21.259-9.2-4.075-25.795-6.402-35.762-5.015M71.484 174.71c-6.27 9.929-6.626 10.787-4.874 11.75 2.266 1.247 9.091 8.127 19.725 19.884 6.439 7.119 9.11 9.271 15 12.079 11.067 5.278 30.594 11.523 39.935 12.773 9.422 1.261 12.025.812 11.067-1.908-1.65-4.683-5.785-7.211-20.965-12.819-8.474-3.131-16.862-6.669-18.64-7.863-4.139-2.78-4.791-6.85-1.634-10.21 3.317-3.531 7.601-3.058 19.591 2.163 10.84 4.72 13.85 5.148 15.681 2.227 1.47-2.345-2.442-6.366-13.402-13.776-12.335-8.339-23.287-13.543-31.468-14.951-7.014-1.207-14.518-4.355-19.245-8.073-1.389-1.092-2.858-1.986-3.266-1.986-.408 0-3.786 4.82-7.505 10.71m58.948-7.96c-.334 1.512-1.27 5.165-2.081 8.117-1.461 5.317-1.214 8.784.548 7.695.503-.31 1.223-2.813 1.601-5.562.654-4.753 1.822-6.936 2.819-5.266.252.421.019 3.63-.517 7.13-.683 4.461-.65 6.688.112 7.45.781.781 1.119-.442 1.204-4.364.148-6.82 1.309-12.062 2.203-9.95.349.825.757 4.523.907 8.218.197 4.866.598 6.516 1.454 5.983.863-.537.949-2.612.318-7.702-1.305-10.525.409-10.713 2.568-.282l1.3 6.283-.566-6.89c-.649-7.916.699-8.357 2.708-.886 1.526 5.672 2.081 6.456 3.814 5.385 1.04-.643.731-2.579-1.508-9.452l-2.816-8.643-6.731-.007c-6.531-.007-6.749.074-7.337 2.743M118 169.382c0 .825.45 1.778 1 2.118.55.34 1-.057 1-.882s-.45-1.778-1-2.118c-.55-.34-1 .057-1 .882m33.729 3.222c-.401.401-.729 1.419-.729 2.263 0 1.125.296 1.237 1.113.421.611-.612.94-1.631.729-2.263-.211-.632-.712-.822-1.113-.421M113 173.81c0 .526.926 1.199 2.057 1.495 1.309.342 1.915.111 1.667-.634-.479-1.438-3.724-2.189-3.724-.861m9.447.468c-.787 2.051.073 4.722 1.522 4.722 1.279 0 1.321-2.994.069-4.972-.797-1.261-1.025-1.225-1.591.25m73.789.905c-2.519 1.557-6.623 2.322-18 3.354-15.088 1.369-23.97 3.414-34.99 8.057l-6.253 2.634 5.253 3.691c4.765 3.347 5.746 3.653 10.533 3.287 6.144-.469 8.221.767 8.221 4.893 0 4.169-3.635 6.114-12.49 6.682-7.087.455-7.469.61-9.894 4.018-1.387 1.949-2.322 3.868-2.078 4.263.96 1.552 15.365 4.346 22.462 4.357 8.941.012 15.212-2.504 26.252-10.533 6.478-4.712 13.165-8.278 22.998-12.264 2.385-.967 3.749-2.175 3.747-3.321-.006-3.217-9.828-21.34-11.497-21.212-.55.042-2.469.984-4.264 2.094m-41.569 1.484c-.367.366-.667 1.321-.667 2.122 0 1.181.283 1.221 1.5.211.825-.685 1.5-1.64 1.5-2.122 0-1.036-1.384-1.161-2.333-.211m-36 23c-1.454 1.453-.542 4.433 1.665 5.438 1.661.757 3.529.74 6.5-.06 2.292-.617 4.168-1.352 4.168-1.632 0-.767-8.265-4.366-10.083-4.391-.871-.012-1.884.278-2.25.645m7.877 8.15l-5.955 2.765 6.4 2.334 6.4 2.333 2.323-2.874c2.964-3.667 2.649-6.798-.712-7.099-1.375-.122-5.18 1.021-8.456 2.541M102 221.723c0 2.181 4.18 4.535 8.709 4.905l4.791.391-5.376-1.991c-2.956-1.096-5.994-2.505-6.75-3.132-.766-.636-1.374-.713-1.374-.173" fill="#1976D2" fill-rule="evenodd"/><path fill-opacity=".668" d="M102.239 1.653c-1.793.884-4.583 3.113-6.199 4.954C93.043 10.02 88.838 21.575 87.526 30c-.386 2.475-1.541 8.1-2.567 12.5-1.026 4.4-3.043 13.4-4.483 20-1.44 6.6-4.611 20.229-7.047 30.287C68.858 111.661 68.455 114 69.778 114c.427 0 3.138-2.682 6.023-5.959 6.485-7.368 14.761-13.809 24.476-19.049 4.083-2.203 8.208-4.87 9.165-5.928.957-1.058 3.03-7.017 4.607-13.244 1.576-6.226 4.732-17.845 7.013-25.82 5.158-18.033 6.082-27.839 3.162-33.56-2.456-4.811-4.674-6.895-9.478-8.902-4.674-1.952-8.382-1.918-12.507.115M61.5 23.871c-3.993 2.48-7.099 5.966-8.579 9.629-1.481 3.665-2.021 23.097-.945 34 .434 4.4 1.313 15.425 1.952 24.5 1.437 20.384 1.86 23.237 3.368 22.735 1.488-.496 2.965-4.811 5.559-16.235 1.124-4.95 3.63-15.975 5.57-24.5 7.619-33.488 9.732-44.238 9.151-46.553-1.258-5.012-10.466-7.06-16.076-3.576M39.376 64.765c-.618.404-2.079 2.31-3.246 4.235-2.836 4.677-2.733 10.75.36 21.137 1.37 4.6 4.362 14.775 6.65 22.613 2.288 7.838 4.596 14.25 5.129 14.25.599 0 .738-3.53.364-9.25-.332-5.088-1.093-17.8-1.689-28.25-.597-10.45-1.538-20.463-2.092-22.25-.985-3.18-3.008-4.098-5.476-2.485M125.5 88.479C95.293 95.126 72.365 116.394 62.412 147c-2.437 7.497-2.773 10.094-2.838 22-.061 11.193.324 14.953 2.255 22 7.794 28.449 27.151 49.568 54.171 59.105 16.065 5.671 28.4 6.032 44.694 1.311 34.847-10.099 58.532-39.984 60.957-76.916.651-9.918-1.229-22.624-4.735-31.995-3.856-10.306-13.048-17.754-19.719-15.977-1.483.395-2.134.926-1.447 1.179.908.334 1.25 3.855 1.25 12.876V153h-2.5c-2 0-2.5-.5-2.5-2.5 0-2.385-.272-2.5-5.917-2.5-3.254 0-6.066.337-6.25.75-.582 1.31-8.525 5.25-10.584 5.25-1.089 0-3.123-.9-4.522-2-1.398-1.1-3.259-2-4.135-2-.875 0-1.592-.45-1.592-1s-1.955-1-4.345-1c-5.598 0-7.789 2.337-8.428 8.99l-.481 5.01H129.71l.59-7.036c.728-8.683 3.61-14.259 9.513-18.403 3.666-2.574 5.429-3.085 11.75-3.404 4.09-.207 7.437-.776 7.437-1.266s1.125-.891 2.5-.891 2.5-.45 2.5-1 .675-1 1.5-1c1.133 0 1.5-1.222 1.5-5v-5h-6.073c-5.245 0-6.028-.239-5.741-1.75.258-1.359 1.531-1.818 5.701-2.057 2.953-.168 6-.937 6.77-1.707 1.424-1.424 4.343-1.007 4.343.621 0 .491 1.623.893 3.607.893 2.878 0 3.484.32 3 1.582-.334.87-.607 1.77-.607 2 0 .23-1.35.418-3 .418-2.333 0-3 .444-3 2 0 2.509.489 2.5 4.111-.079 8.086-5.758 7.54-18.761-1.044-24.874-10.919-7.774-33.181-11.173-49.567-7.568m64.806 41.989c-2.508 2.207-2.594 2.471-.806 2.493 1.17.014 2.479-1.01 3.156-2.469 1.44-3.105 1.156-3.108-2.35-.024m-59.686 33.738c-2.384 8.779-4.283 17.797-3.842 18.239 1.553 1.553 3.198.155 3.759-3.195.345-2.062 1.041-4.875 1.548-6.25.837-2.273.721 1.218-.38 11.392-.113 1.041.298 2.071.912 2.289 1.328.472 2.383-4.164 2.383-10.473 0-2.498.293-4.248.652-3.889.359.358.559 3.846.445 7.75-.186 6.37-.022 7.062 1.598 6.736 1.59-.32 1.764-1.285 1.464-8.084-.188-4.247-.116-7.721.159-7.721.276 0 1.033 3.151 1.682 7.003.65 3.851 1.571 6.762 2.047 6.468.476-.294.699-1.083.494-1.753-.204-.67-.639-3.45-.966-6.178-.71-5.923.606-4.988 2.408 1.71 1.251 4.654 2.278 5.506 4.748 3.937.943-.598.732-2.059-.897-6.234-1.171-2.999-2.406-7.028-2.745-8.953l-.617-3.5-7.25-.294c-5.285-.214-7.346.057-7.602 1m-54.414 2.544c-1.062 1.512-4.225 6.43-7.03 10.928l-5.099 8.177 4.298 2.519c2.544 1.491 7.281 6.255 11.607 11.672 10.204 12.778 15.912 16.977 31.018 22.815 14.47 5.593 21.43 7.563 32.364 9.161 8.725 1.275 10.285.702 9.255-3.404-.986-3.93-6.02-6.961-20.119-12.117-14.917-5.456-18.123-6.933-21.25-9.792-2.911-2.662-2.849-5.201.205-8.254 3.413-3.413 6.236-3.112 17.904 1.909 11.991 5.161 13.826 5.672 15.999 4.456 2.487-1.392 1.97-5.138-1.108-8.028-7.756-7.281-34.798-22.792-39.737-22.792-4.657 0-14.319-3.283-19.248-6.54-2.879-1.903-5.661-3.46-6.182-3.46-.521 0-1.815 1.238-2.877 2.75m41.374 2.12c-.307.497.112 1.459.931 2.139 1.211 1.005 1.489.944 1.489-.328 0-1.866-1.631-3.087-2.42-1.811m33.452 5.88c.03 2.634.094 2.668 1.5.809 1.871-2.474 1.861-3.559-.032-3.559-.977 0-1.489.958-1.468 2.75m45.375-.127c-3.396 1.953-6.381 2.521-17.5 3.332-8.838.644-16.32 1.829-21.954 3.477-10.801 3.158-20.521 7.424-19.35 8.493.493.45 2.872 2.223 5.286 3.939 4.012 2.852 4.85 3.067 9.734 2.493 6.023-.708 8.377.47 8.377 4.193 0 4.192-4.355 6.45-12.442 6.45h-7.173l-3.19 4.526-3.19 4.525 2.747 1.046c6.897 2.625 16.106 4.077 23.248 3.666 8.666-.499 12.133-2.026 25.3-11.141 4.84-3.35 12.715-7.7 17.5-9.666 7.515-3.087 8.667-3.877 8.456-5.8-.322-2.931-6.963-16.307-9.647-19.433l-2.109-2.454-4.093 2.354m-83.162-.373c.226.688 1.48 1.406 2.785 1.596 2.073.302 2.206.144 1.05-1.25-1.566-1.887-4.428-2.145-3.835-.346m8.755 1.044c0 1.354.71 3.05 1.577 3.77 1.391 1.154 1.539.911 1.25-2.05-.385-3.954-2.827-5.439-2.827-1.72m32.6 1.867c-1.954 2.789-.251 3.919 2.205 1.462 1.163-1.162 1.306-1.912.518-2.7-.789-.789-1.544-.445-2.723 1.238m-35.922 21.495c-1.096 1.096-.777 4.845.522 6.144 1.567 1.567 6.523 1.457 10.3-.229l3-1.339-4.5-2.009c-6.046-2.699-8.512-3.378-9.322-2.567m7.394 8.924c-3.13 1.421-5.035 2.822-4.5 3.31 1.786 1.63 10.367 4.348 11.885 3.765 2.101-.806 5.499-6.605 4.855-8.286-.799-2.08-6.16-1.55-12.24 1.211M102 221.937c0 .393 1.038 1.689 2.307 2.881 2.589 2.433 11.693 4.237 11.693 2.318 0-.625-.562-1.147-1.25-1.16-.687-.013-3.838-1.088-7-2.388-3.162-1.301-5.75-2.043-5.75-1.651" fill="#1976D2" fill-rule="evenodd"/><path fill-opacity=".672" d="M62.5 23.662C53.762 28.268 51.457 34.304 51.676 52c.086 6.875.41 13.85.721 15.5.311 1.65.821 6.825 1.133 11.5 1.692 25.378 2.559 34.489 3.357 35.287 1.319 1.319 1.96-.241 4.106-9.986 1.067-4.84 3.551-15.551 5.522-23.801 1.97-8.25 4.48-19.5 5.577-25 1.096-5.5 2.925-13.714 4.064-18.253 1.947-7.762 1.971-8.404.405-10.794-2.917-4.452-8.725-5.605-14.061-2.791m62.983 65.319c-22.018 4.979-39.863 17.162-51.902 35.433-9.749 14.795-15.287 33.909-14.224 49.086.715 10.218 3.963 23.03 8.155 32.175 15.945 34.786 55.444 55.29 89.421 46.418 29.072-7.591 50.285-26.966 59.75-54.574 5.559-16.215 6.072-33.208 1.499-49.642-3.831-13.768-11.434-21.775-19.932-20.992-.933.086-1.25 3.557-1.25 13.685 0 13.5-.012 13.567-2.25 13.25-1.611-.229-2.34-1.101-2.566-3.07-.301-2.616-.576-2.75-5.643-2.75-3.813 0-5.491.426-5.903 1.5-.316.825-1.377 1.514-2.357 1.532-.979.017-2.655.692-3.722 1.5-2.798 2.116-8.182 1.845-10.559-.532-1.1-1.1-2.675-2-3.5-2-.825 0-1.5-.509-1.5-1.13 0-1.445-8.704-.566-10.312 1.042-.625.625-1.374 3.489-1.663 6.363l-.525 5.225-8.25.29-8.25.291.022-6.291c.028-7.96 2.375-13.262 8.005-18.081 4.441-3.802 8.23-5.021 15.973-5.14 2.475-.038 5.099-.636 5.831-1.328.731-.693 1.744-1.004 2.25-.691.505.312.919.091.919-.491s.675-1.059 1.5-1.059c1.126 0 1.5-1.202 1.5-4.821v-4.822l-5.226-.238c-5.912-.27-6.252-.431-5.429-2.576.433-1.128 2.05-1.543 6.017-1.543 3.899 0 5.586-.422 6-1.5.316-.825 1.278-1.5 2.138-1.5.86 0 1.822.675 2.138 1.5.378.983 1.938 1.5 4.528 1.5 2.733 0 3.732.356 3.239 1.155-.434.701-.276.883.402.464 1.814-1.121 2.539-7.521 1.315-11.606-1.302-4.345-7.517-10.441-12.982-12.734-5.843-2.451-21.092-5.259-28.14-5.182-3.575.04-10.107.887-14.517 1.884M173 120.714c0 .707.395 1.286.878 1.286.482 0 1.357-.579 1.944-1.286.807-.972.594-1.285-.877-1.285-1.07 0-1.945.578-1.945 1.285m16 10.786c-1.04 1.253-.896 1.5.878 1.5 1.22 0 2.122-.638 2.122-1.5 0-.825-.395-1.5-.878-1.5-.482 0-1.437.675-2.122 1.5M78.315 163.828C77.055 164.633 64 184.707 64 185.839c0 .435 1.515 1.513 3.367 2.396 1.853.884 5.565 4.187 8.25 7.341 16.124 18.939 19.615 21.658 35.878 27.943 14.271 5.516 24.341 8.202 34.05 9.081l7.455.676v-3.034c0-3.632-4.865-8.382-10.481-10.236-5.494-1.813-3.677-2.166 2.028-.394 2.774.861 8.759 1.558 13.603 1.582 10.391.053 14.553-1.613 28.605-11.452 5.668-3.969 12.547-7.723 17.75-9.686 6.381-2.409 8.495-3.66 8.495-5.03 0-1.829-7.725-17.955-10.215-21.325-1.268-1.716-1.582-1.685-6.807.67-4.252 1.915-7.94 2.618-16.478 3.139-9.492.58-22.261 2.926-28.085 5.161-1.179.452-1.512.294-1.028-.488.393-.637-.433-4.34-1.836-8.23-1.403-3.89-2.551-7.945-2.551-9.013 0-1.754-.746-1.94-7.769-1.94h-7.769l-2.238 9.25c-2.731 11.285-2.732 10.961.02 10.57 1.874-.267 2.383-1.199 3.089-5.648.464-2.93 1.052-5.121 1.305-4.867.516.516-1.626 13.695-2.226 13.695-.21 0-2.537-1.326-5.171-2.947-8.232-5.065-17.501-8.927-23.827-9.927-7.249-1.146-11.876-2.972-17.72-6.992-2.38-1.638-4.801-2.676-5.379-2.306m38.685 5.55c0 .757.67 1.933 1.488 2.612 1.203.998 1.603.935 2.089-.329.33-.861.309-2.037-.047-2.613-.943-1.525-3.53-1.284-3.53.33m34.142 2.951c-.782.942-.873 2.206-.272 3.792l.901 2.379 1.287-2.777c1.506-3.248.072-5.789-1.916-3.394M112.5 173c-.994 1.608.425 3 3.059 3 2.675 0 3.094-.947 1.241-2.8-1.46-1.46-3.463-1.554-4.3-.2m26.658 1c0 1.375.227 1.938.504 1.25.278-.687.278-1.812 0-2.5-.277-.687-.504-.125-.504 1.25m-17.766.422c-.619 1.612 1.213 5.578 2.576 5.578 1.539 0 2.258-4.022.992-5.548-1.527-1.84-2.869-1.852-3.568-.03m13.774 5.755c-.118 4.752-.564 6.77-1.547 7-.811.19.325 1.517 2.75 3.216 3.309 2.317 3.733 2.446 2.131.649-1.477-1.657-2.153-4.242-2.584-9.893l-.585-7.649-.165 6.677m8.43-.927c.353 3.706.174 5.75-.505 5.75-.579 0-1.269-1.012-1.533-2.25-1.185-5.554-1.462-5.929-1.151-1.557.249 3.49-.053 4.841-1.179 5.273-.833.32-1.29.805-1.016 1.079.273.274 2.857-.595 5.74-1.932 3.482-1.613 4.639-2.545 3.442-2.776-1.159-.223-2.254-1.947-3.073-4.842l-1.273-4.495.548 5.75m10.374-2.195c-1.707 3.19-.677 4.338 1.969 2.196 1.356-1.099 2.07-2.427 1.661-3.089-1.073-1.736-2.397-1.41-3.63.893m-9.57 19.696c3.877 4.116 3.89 4.157 2.158 6.802-1.768 2.697-3.168 2.843-9.058.942-1.799-.581-1.824-.533-.25.479 2.351 1.512 2.209 2.887-.75 7.241-1.375 2.023-2.5 4.034-2.5 4.469 0 .434 1.587-1.567 3.527-4.447l3.526-5.237h5.824c7.455 0 12.02-1.6 13.166-4.614 1.856-4.882-.894-6.693-8.147-5.367-3.734.683-4.746.449-7.842-1.813l-3.554-2.597 3.9 4.142m-29.4.044c-2.873.893-5 3.533-5 6.205 0 3.137 2.029 5.193 7.25 7.349 3.081 1.273 3.75 1.305 3.75.183 0-.752 2.035-2.144 4.522-3.094 5.127-1.958 5.498-2.878.594-1.471-5.872 1.684-10.373-1.75-8.03-6.127.837-1.565 1.674-1.866 3.744-1.347 1.466.368 2.365.369 1.997.001-1.041-1.041-7.157-2.219-8.827-1.699M126 200c.825.533 1.95.969 2.5.969s.325-.436-.5-.969c-.825-.533-1.95-.969-2.5-.969s-.325.436.5.969m4.823 2.287c.638.768.864 1.693.502 2.055-.929.929.918.791 2.453-.184.921-.584.523-1.155-1.418-2.04-2.287-1.042-2.52-1.016-1.537.169m-28.829 20.703c1.545 2.886 6.275 5.01 11.156 5.01 5.303 0 4.328-1.014-4.228-4.398-7.9-3.125-8.291-3.159-6.928-.612" fill="#1976D2" fill-rule="evenodd"/></svg>